# xmcd
# 
# Track frame offsets:
#     150
#     12392
#     27207
#     39845
#     57195
#     75562
#     88740
#     107755
#     125512
#     141805
#     152555
#     166535
#     182792
#     193055
#     206680
#     223487
#     240897
# 
# Disc length: 3356
# 
# Revision: 17
# Processed by: cddbd v1.5.2PL0 Copyright (c) Steve Scherf et al.
# Submitted via: fre:ac v1.1beta1pre5
# 
DISCID=dd0d1a11
DTITLE=Various Artist - Come Together - America Salutes The Beatles
DYEAR=1995
DGENRE=Rock/Pop
TTITLE0=David Ball - I'll Follow The Sun
TTITLE1=Tanya Tucker - Something
TTITLE2=Willie Nelson - One After 909
TTITLE3=John Berry - The Long And Winding Road
TTITLE4=Delbert McClinton - Come Together
TTITLE5=Sammy Kershaw - If I Fell
TTITLE6=Collin Raye - Let It Be
TTITLE7=Phil Keaggy and PFR - We Can Work It Out
TTITLE8=Billy Dean - Yesterday
TTITLE9=Shenandoah - Can't Buy Me Love
TTITLE10=Randy Travis - Nowhere Man
TTITLE11=Huey Lewis - Oh! Darling
TTITLE12=Little Texas - Help!
TTITLE13=Susan Ashton and Gary Chapman - In My Life
TTITLE14=Steve Wariner - Get Back
TTITLE15=Suzy Boguss and Chet Atkins - All My Loving
TTITLE16=Kris Kristofferson - Paperback Writer
EXTD=
EXTT0=
EXTT1=
EXTT2=
EXTT3=
EXTT4=
EXTT5=
EXTT6=
EXTT7=
EXTT8=
EXTT9=
EXTT10=
EXTT11=
EXTT12=
EXTT13=
EXTT14=
EXTT15=
EXTT16=
PLAYORDER=
